<svg width="32" height="32" viewBox="0 0 32 32" fill="none" xmlns="http://www.w3.org/2000/svg">
<path d="M25.0008 0H6.99922C3.13366 0 0 3.13366 0 6.99922V25.0008C0 28.8663 3.13366 32 6.99922 32H25.0008C28.8663 32 32 28.8663 32 25.0008V6.99922C32 3.13366 28.8663 0 25.0008 0Z" fill="#FF334C"/>
<path d="M24 14.5626V24.5042H19.2443V15.3485C19.2443 13.4231 18.1159 12.0478 16.2217 12.0478C14.3275 12.0478 12.796 13.5017 12.796 15.545V24.5042H8V8.58983H12.6751V10.751C13.8035 9.02207 15.738 8.00041 17.8338 8.00041C21.5416 7.96112 24 10.751 24 14.5626Z" fill="white"/>
</svg>
